<?xml version="1.0" encoding="utf-8"?>
<!-- Generator: Adobe Illustrator 24.0.1, SVG Export Plug-In . SVG Version: 6.00 Build 0)  -->
<svg version="1.1" id="Layer_1" xmlns="http://www.w3.org/2000/svg" xmlns:xlink="http://www.w3.org/1999/xlink" x="0px" y="0px"
	 viewBox="0 0 841.9 1190.6" style="enable-background:new 0 0 841.9 1190.6;" xml:space="preserve">
<style type="text/css">
	.st0{fill:none;}
	.st1{font-family:'Mistral';}
	.st2{font-size:40.0669px;}
	.st3{fill:#252525;}
	.st4{fill:#090909;}
	.st5{fill:#0E0E0E;}
	.st6{fill:#0D0D0D;}
	.st7{fill:#151515;}
	.st8{fill:#020202;}
	.st9{fill:#D16768;}
	.st10{fill:#D45153;}
	.st11{fill:#010101;}
	.st12{fill:#EE1A24;}
	.st13{fill:#262626;}
	.st14{fill:#272727;}
	.st15{fill:#030303;}
	.st16{fill:#1D1D1D;}
	.st17{fill:#1C1C1C;}
	.st18{fill:#171717;}
	.st19{font-family:'FranklinGothic-Medium';}
	.st20{font-size:24px;}
	.st21{opacity:0.54;fill:#0071BC;}
	.st22{opacity:0.54;fill:#ED1C24;}
	.st23{fill:#ED1C24;}
</style>
<path d="M358.7,491.7c-6.6,6-10.1,13.9-13.2,22c-0.8,2,0.2,3.1,1.1,4.5c3,4.6,5.9,9.3,8.8,13.9c1.1,1.7,2.5,3.4-0.4,5.2
	c-4.2-3.5-8.4-7.1-13.1-11c-2.1,7-3.2,13.4-4.1,20.3c5.2,0,9.8,0,14.4,0c1.6,2.7,1,4.2-1.7,5c-0.5,0.1-1,0.4-1.4,0.4
	c-10.8,1.1-14.8,7.3-13.8,17.7c0.4,4-0.4,8-0.2,12c0.2,4.2-1.4,5.9-5.8,5.2c-0.7-8,0.1-16.1,0.7-24.2c1.6-22.4,5.1-44.3,15.2-64.7
	c2.9-5.9,6.6-11.2,11.5-15.6c12.1-11.2,27.4-9.7,37.1,3.7c4.7,6.4,8.7,13.8,8.6,21.5c-0.1,6.5,2.7,11.5,4.3,17.1
	c7.2,26-1.7,53.3-22.4,67c-13,8.5-26.9,9.8-41.5,4.4c-3.2-1.2-4.9-2.8-4.5-6.5c0.4-4.2,0.1-8.5,0.1-13.7c1.7,1.3,2.3,1.8,2.9,2.3
	c14.5,13.2,32.8,12.8,46.9-1.1c16-15.8,18-46.2,4.1-63.9c-6-7.7-13.9-11.7-23.7-11.9c-1.3,0-2.7,0.1-4,0c-2.4-0.2-5.4,1-6.9-1.5
	c-1.7-2.8,0.8-4.9,2.2-7.1c5.1-3.4,10.7-3.3,16.3-1.7c9,2.7,16.2,8.1,21.9,15.8c-0.1-7.8-8.5-19.5-15.9-22.3
	C374.1,481.5,365.4,484.2,358.7,491.7z"/>
<path d="M136.1,559.2c1.1,3.2,3.6,3.5,5.8,4.2c21.5,6.4,43.5,9.4,65.7,11.6c9.7,1,19.2-1.3,28.8-2.5c3.1-0.4,5.5-0.2,7.7,2.1
	c6.6,7,14.6,9.2,24.2,9.2c15.5,0,30.9,1.1,46.4,1.8c1.8,0.1,4.1-0.5,5.4,1.6c-1,2-2.8,1.5-4.4,1.7c-31.9,4.2-63.8,2.7-95.7,1
	c-2.7-0.1-4.8-1.5-6.5-3.2c-4.2-4.2-9.1-5.9-15-6.6c-21.8-2.6-43.6-5.9-64.2-13.9c-1.8-0.7-2.9,0.6-4.9,0.7
	C131.2,563.8,133.4,561.8,136.1,559.2z"/>
<path d="M134.6,512.3c0.9,4,3.1,5.1,5.9,5.6c16.6,3,33.3,4.2,50.2,3.8c5.5-0.1,9.7-2.3,11.9-7.4c1-2.4,2.6-3.1,5.1-3
	c2.5,0.1,5,0.3,7.5-0.1c5.2-0.8,8.4,1.2,11,5.6c2.6,4.3,0.8,7.4-0.9,11.1c-2.4,5.1-5.5,7-11.6,6.6c-23.1-1.5-46.1-4-69-6.8
	C134.1,526.5,130.5,521.4,134.6,512.3z"/>
<path d="M229.7,471.3c-16.9,3-33.6,6.7-50,11.6c-8.1,2.4-16.3,5-23.7,9.2c-2.8,1.6-7.5,2.7-6.9,6.2c0.6,3.8,5.4,3.1,8.5,3.6
	c12.4,2,24.9,2.3,37.4,2.7c19.3,0.6,38.6,0.5,58,0.3c-6.4,1.6-13,2.1-19.6,2.4c-27.1,1.5-54.3,2.4-81.4,0.5
	c-3.7-0.3-7.3-0.9-10.7-2.2c-3.8-1.4-4.2-3.8-1.9-7c1.4-1.9,3.3-3.3,5.3-4.5c16-9.5,33.8-14,51.6-18.3c9.5-2.3,19.3-3.7,28.9-5.6
	C226.7,470.2,228.3,469.5,229.7,471.3z"/>
<path d="M134,530.2c3.1,2.3,3.6,5.2,4,8.1c0.3,2.6,0.6,5.3,0.8,8c0.3,4.1,2.3,6.8,6.2,8.1c17.2,5.6,34.9,8.3,53,9.3
	c2.4,0.1,4.8-0.5,7.6-0.9c-2.1,3.9-4.7,6-8.9,5.7c-18-1.4-35.7-3.8-53.1-9c-6.6-2-9.6-5.8-9.7-12.5
	C133.9,541.5,133.2,536.1,134,530.2z"/>
<path d="M383.5,469.4c11.9,8.3,25.9,7.4,39.4,8.4c10.5,0.7,20.9,1.1,31.4,1.8c6.7,0.4,8-0.8,7.1-7.2c2.6,1.2,4.2,4.2,3.8,7.2
	c-0.5,3.4-3.1,3.6-5.7,3.5c-14.6-0.3-29.3-0.8-43.9-1.1c-2.5-0.1-5-0.1-7.5-0.1c-6.3,0-6.8,0.6-5.5,6.8c0.4,1.9-1,3.4-1.6,5.5
	c-2.9-10.5-9.9-17.7-18.2-23.9C383,469.9,383.3,469.7,383.5,469.4z"/>
<path d="M222,496c1.9-2.1,3.9-4.1,5.8-6.2c0.3,0.3,0.6,0.6,0.9,0.9c-0.9,1.5-2.4,2.7-2.7,5c4.5,0,8.8,0.2,13.2,0
	c12.3-0.8,24.5-0.5,36.6,2.7c8.8,2.4,17.8,1.7,26.1-3.1c8.5-4.9,14.4-11.6,15.6-21.8c1.9,9.4-1.9,16.6-9,22
	c-8.3,6.3-18.2,10.2-28.1,7.1c-17.8-5.7-35.7-4.9-53.8-4.4C224.9,498.1,222.2,499.3,222,496L222,496z"/>
<path d="M298.2,538.1c-3.5-2.2-6.7-1.9-9.8-1.6c-9.3,0.9-19-1.6-27.9,3.4c-1.7,0.9-4.3,0.2-6.4,0.1c-17.8-0.4-23.9,3.5-31.1,19.8
	c-1.6,3.6-3.4,7-6.2,10.1c-1.2-1.4,0-2.3,0.3-3.1c3.6-8.4,7.9-16.5,12.4-24.5c2.7-4.7,6.6-7,11.7-7.2c17.3-0.5,34.6-0.8,52-1.2
	C295.6,533.9,297.4,534.5,298.2,538.1z"/>
<path d="M439.4,446.6c-4.4-2.4-8.6-5.1-13.1-7.2c-5.3-2.3-7.6-1.1-9.3,4.4c-1.8,5.7-3.7,11.4-5.2,17.2c-0.9,3.2-2.2,4.6-5.9,4.2
	c-6.6-0.8-13.3-1-19.9-1.3c-3.2-0.1-5.4-2.1-7.8-4.2c6.7,0.3,13.4,0.5,20,1.1c3.2,0.3,4.9-0.5,6.2-3.5c1.7-4,3.8-7.8,5.5-11.7
	c1.4-3.1,1.9-6.3-0.4-10.4c13-2.8,22,3.6,30.9,10.6C439.9,446,439.7,446.3,439.4,446.6z"/>
<path d="M407.2,434c-1.8,2.3-3.8,2.5-6,2.4c-40.9-1.8-78.9,8-114.4,28.1c-2.1,1.2-4,1.3-7.4,0.9C319.4,442.6,361.3,431.5,407.2,434z
	"/>
<path d="M370.3,581.7c30.2-16.1,28.8-58.1,6-73.4c10.8,0,21.2,17.8,21,35.9C397.1,562.2,382.9,581.9,370.3,581.7z"/>
<path d="M240.3,561.7c19-3.7,38.1-2.9,57.3-2.4c0,1,0,1.9,0,2.9C278.6,563.4,259.4,562.2,240.3,561.7z"/>
<path d="M363,458.7c-16.7-2.1-30.8,2.2-44.2,9c-4.4,2.3-8.4-0.8-13,0.3C315.4,458.6,352.1,452.3,363,458.7z"/>
<path d="M243.2,551.7c18-3.2,36.2-3.1,54.3-1.4C294.5,553.2,253,554.1,243.2,551.7z"/>
<path d="M222.1,495.9c-6.7,4-14,1.3-21.3,2.3c2.7-5.6,18.3-11.9,26-10.8C226.4,491,221.4,491.9,222.1,495.9
	C222,496,222.1,495.9,222.1,495.9z"/>
<path d="M227.8,489.8c2.3-3.8,6.3-5.3,10.1-6.3c7.7-2.1,15.5-3.4,23.3-5.3c3.3-0.8,6.4,0.6,9.5,0.2c-12.1,3.2-24.2,6.3-36.3,9.5
	c-2.1,0.6-4.1,1.4-5.7,2.8C228.4,490.3,228.1,490,227.8,489.8z"/>
<path d="M414,466.9c-2.4-3.2,0.5-5.8,0.9-10c3.6,6.1,8.7,4.7,13.5,4.8c1.8,0,4.6-0.9,4.8,2c0.2,3-2.6,2.9-4.6,3.2
	c-3.3,0.5-3.3,0.5-3.5,3.6c-4.6,0.3-8.9-0.6-13.2-1.8C411.8,466.8,413.5,467.8,414,466.9c2.8,1.3,5.7,2.3,9.9,1.4
	C420.1,466.6,417,467.2,414,466.9z"/>
<path d="M350.4,579.5c-2.9-0.7-4.5-2.3-6.7-4.1c4.3-5.3,8.4-10.4,12.6-15.5c1.9-2.3,3-0.5,4.5,1
	C357.4,567.2,353.9,573.3,350.4,579.5z"/>
<path d="M362.1,530.8c0-7.8-1.5-15-1-22.5c2.4-0.7,4.4-0.1,6.4,0.5C368.4,517.8,365.6,529.9,362.1,530.8z"/>
<path d="M369.7,579.6c-2.3-16.2-2.1-18,2-20.3c2.1,4.5,2.8,9.4,3.8,14.2C376.3,577.3,371.9,576.9,369.7,579.6z"/>
<path d="M462.7,469.4c4.8-0.4,8.8-0.6,12.7-1c1.4-0.2,2.9,0.3,4-1.4c1.2-2,3-1.3,4.2-0.1c1.8,2.1,0.9,4.5-0.6,6.3
	c-1.2,1.5-2.2,1.2-3.9-0.4c-2.5-2.3-6.2-1.3-9.4-0.9C467,472.2,465,472,462.7,469.4z"/>
<path d="M418,504.7c0.5-5.2,1-10.3,1.6-15.5c0.2-1.5,1.3-2.3,2.8-2.1c3.5,0.5,7.1,1,10.8,3.9c-11.9-2.1-12.3,6.6-13.4,14.5
	C419.2,505.3,418.6,505,418,504.7z"/>
<path d="M378.4,515.1c2.1,1.2,3.5,3,4.7,5.3c-2.8,4.2-5.7,8.4-8.6,12.6C371.6,530.7,373.2,524.2,378.4,515.1z"/>
<path d="M294.9,481.7c-3.6,4.8-3.6,6-0.2,10.8c-1.8,2.4-3.9,2.2-5.9,0.3c-2.4-2.2-2.7-7.8-0.4-10.6
	C290.2,480,292.2,479.1,294.9,481.7z"/>
<path d="M378.9,549.6c3.4,1.4,6.4,2.7,9.3,4c0,2.9-0.7,5.2-2,7.3C378.4,556.8,376.5,554,378.9,549.6z"/>
<path d="M389.7,539.1c-3.3,0.6-6.2,1.1-9.2,1.6c-1,0.2-2,0.2-2.4-1.1c-0.5-1.4,0-2.2,1.2-2.8c2.9-1.5,5.7-3.2,8.7-4.8
	C389.4,534.2,389.4,536.4,389.7,539.1z"/>
<path d="M455,474.4c-5.5-4.3-3.9-12.3-8.3-17.3C452.4,461.3,454.2,467.5,455,474.4z"/>
<path d="M361.7,545.5c0.4-2.7,1.3-4.8,4-4.7c2.6,0,3.3,2.2,3.1,4.3c-0.2,2.4-1.4,4.8-4.2,4.6C362,549.5,361.6,547.2,361.7,545.5z"/>
<path d="M253.4,484.9c0.6,0.6,1,0.8,1.1,1.1c0.8,2.6,1.5,5.2-1.1,7.2c-0.7,0.6-1.8,0.1-2-0.7C250.5,489.6,250.3,486.9,253.4,484.9z
	 M253.6,490.9c0.8-1.1,1.4-2-0.2-3C252.9,488.8,252.4,489.6,253.6,490.9z"/>
<path d="M417.6,515.6c0,4.2-0.7,8.7-2.3,13.9C415.1,523.4,416.1,518.2,417.6,515.6z"/>
<path d="M284.5,480.6c-2.1,3.9-2.3,7.8-0.1,12.6C280.5,488.4,280.6,485.3,284.5,480.6z"/>
<path d="M440.2,445.8c3.1,1.6,5.2,4.3,7.2,7.3c-2.7-2.2-5.3-4.3-8-6.5C439.7,446.3,439.9,446,440.2,445.8z"/>
<path d="M382.8,470.2c-0.5-0.2-1.1-0.4-1.7-0.6c1-1.4,1.7-0.6,2.4-0.2C383.3,469.7,383,469.9,382.8,470.2z"/>
<path d="M414,466.9c3,0.3,6.1-0.3,9.9,1.4C419.8,469.2,416.8,468.3,414,466.9C414,467,414,466.9,414,466.9z"/>
<path d="M253.6,490.9c-1.2-1.2-0.6-2-0.2-3C254.9,488.9,254.4,489.8,253.6,490.9z"/>
<g>
	<rect x="486.9" y="516.6" class="st0" width="231.2" height="35.1"/>
	<text transform="matrix(1 0 0 1 486.8759 542.9082)" class="st1 st2">ARLENS	</text>
	<g>
		<path class="st3" d="M461.7,559.7c0.9,0.6,1.8,1.1,2.7,1.7c-0.1,0.3-0.4,0.3-0.7,0.3c-1.3,0-2.6,0.1-3.9-0.1c-0.2,0-0.4,0-0.6,0
			c-1.7-0.2-3.3-0.7-4.8-1.5c-0.1-0.3,0.1-0.2,0.3-0.2c0.7,0,1.5,0,2.2,0c-0.5-0.1-1,0.1-1.5-0.1c0.9-0.1,1.8-0.1,2.7-0.1
			C459.3,559.8,460.5,559.8,461.7,559.7z"/>
		<path class="st4" d="M467.9,561.6c0.2-0.2,0.4-0.1,0.7-0.1c4.5,0,9,0,13.5,0c0.2,0,0.5-0.1,0.7,0.1c-1.2,0.2-2.4,0.1-3.6,0.1
			c-3.4,0-6.9,0-10.3,0C468.5,561.7,468.2,561.8,467.9,561.6z"/>
		<path class="st4" d="M459.2,561.6c0.3-0.2,0.6-0.1,0.9-0.1c1.1,0,2.3,0,3.4,0c0.3,0,0.6,0,0.8-0.1c0.2,0.1,0.4,0.1,0.6,0.4
			C463.1,561.7,461.1,561.9,459.2,561.6z"/>
		<path class="st5" d="M481.2,495.7c-0.2,0-0.3-0.1-0.6-0.1c1.2-0.2,2.3,0.1,3.4-0.2c1,0.1,1.9,0.5,2.9,1
			C485,495.8,483.1,495.6,481.2,495.7z"/>
		<path class="st6" d="M484,561.4c-1.1-0.3-2.2,0-3.4-0.2c0.3-0.1,0.5-0.1,0.6-0.1c1.6,0.1,3.3-0.1,4.9-0.4
			C485.4,561,484.8,561.3,484,561.4z"/>
		<path class="st7" d="M456.3,557.5c-0.7,0-1.3,0-2,0c0-0.1,0-0.1,0-0.2c1.2,0,2.4,0,3.6,0c0.3,0,0.6,0.1,0.8-0.2
			c0.1,0.1,0.2,0.1,0.2,0.2c0,0.2-0.1,0.1-0.3,0.1C457.9,557.5,457.1,557.5,456.3,557.5z"/>
		<path class="st8" d="M455.4,559.8c0.6,0,1.1,0,1.7,0c0,0.1,0,0.1,0,0.2c-0.7,0-1.3,0-2,0c-0.2,0-0.5-0.1-0.7,0.2
			c-0.2-0.1-0.4-0.1-0.5-0.2c0,0,0-0.1,0-0.1C454.4,559.8,454.9,559.8,455.4,559.8z"/>
		<path d="M461.7,559.7c-1.2,0.2-2.4,0.2-3.6,0C459.3,559.7,460.5,559.6,461.7,559.7z"/>
		<path class="st9" d="M493.8,548c0-0.1,0-0.3-0.2-0.3c0.3-0.5,0.6-1,0.9-1.5C494.4,546.8,494.1,547.4,493.8,548z"/>
		<path class="st10" d="M493.5,508.9c0.1,0,0.2,0,0.3-0.2c0.3,0.5,0.5,1,0.6,1.5C494.1,509.9,493.8,509.4,493.5,508.9z"/>
		<path class="st11" d="M450.6,557.6c0.9-0.2,1.9-0.2,2.8,0C452.4,557.6,451.5,557.7,450.6,557.6z"/>
		<g>
			<path class="st12" d="M493.5,508.9c-1.4-2.1-3.1-3.9-5.4-5.2c-3.7-2-7.5-1.6-10.7,1.1c-2.6,2.2-4.3,5.1-5.6,8.2
				c-2.4,6-3.1,12.2-2.7,18.6c0.3,4.8,1.4,9.4,3.5,13.7c1.1,2.2,2.5,4.3,4.3,6c3.9,3.6,8.6,3.7,12.7,0.4c1.5-1.2,2.8-2.7,3.9-4.2
				c0.3,0,0.2,0.1,0.2,0.3c-1.2,2.5-2.8,4.8-4.8,6.8c-5.1,5-11.6,5-16.7,0c-2.6-2.6-4.4-5.7-5.8-9.1c-2.8-7.2-3.6-14.8-2.8-22.4
				c0.5-5,1.6-9.7,3.8-14.2c1.4-2.8,3.1-5.4,5.5-7.5c4.9-4.3,11-4.2,15.7,0.2c2.2,2,3.8,4.5,5.1,7.1
				C493.8,509,493.6,509,493.5,508.9z"/>
			<path class="st13" d="M441.8,512.7c1.7,1.9,3.3,3.7,5,5.5c0,0,0,0,0,0.1c1.5,1.1,1.7,2.5,1.3,4.2c-0.3,1-0.2,2.1-0.4,3.3
				c-0.9-0.6-1.7-1.1-2.5-1.7c-1.6-1.1-3.3-2.2-4.9-3.3c-0.2-0.2-0.4-0.3-0.4-0.7C440.4,517.6,440.9,515.2,441.8,512.7z"/>
			<path class="st13" d="M484,561.4c-0.4,0.2-0.9,0.2-1.3,0.2c-0.5-0.2-1.1,0-1.6,0c-4.1,0-8.1,0-12.2,0c-0.3,0-0.7-0.1-1,0
				c-1.6-0.8-3.1-1.8-4.6-2.9c2-1.3,4-2.6,6-3.9c0.4-0.2,0.4,0.1,0.6,0.3c1.4,1.5,3,2.8,4.7,3.9c1.9,1.1,3.9,1.8,6.1,2.1
				c0.2,0,0.3,0.1,0.5,0.1c-0.1,0.1-0.1,0.1,0,0.1c0.7,0,1.4,0,2.1,0C483.6,561.1,483.9,561.1,484,561.4z"/>
			<path class="st13" d="M463.7,512.2c-0.6,1.7-1.1,3.3-1.5,5c-0.1,0.3-0.2,0.3-0.4,0.3c-3.1,0.4-6.3,0.8-9.4,1.3
				c-0.4,0.1-0.5-0.1-0.4-0.4c0.4-1.7,0.8-3.4,1.4-5c0.1-0.3,0.2-0.4,0.5-0.4c3.2-0.2,6.4-0.5,9.6-0.8
				C463.5,512.1,463.6,512.1,463.7,512.2z"/>
			<path class="st13" d="M461.3,519.8c0.2-0.1,0.3,0,0.2,0.4c-0.2,1.3-0.4,2.7-0.5,4c0,0.3-0.2,0.4-0.4,0.4
				c-3.1,0.6-6.2,1.1-9.3,1.7c-0.3,0.1-0.5,0-0.4-0.4c0.2-1.5,0.3-3,0.4-4.4c0-0.2,0.1-0.4,0.4-0.4
				C454.9,520.6,458.1,520.2,461.3,519.8z"/>
			<path class="st13" d="M451.6,509.8c-1.8-2-3.4-3.9-5.1-5.7c-0.2-0.2-0.1-0.3,0-0.5c1.2-1.6,2.6-3.1,4.1-4.5
				c0.3-0.3,0.5-0.3,0.7,0.1c1,1.7,2,3.4,3.1,5.1c0.2,0.3,0.1,0.4,0,0.7C453.3,506.5,452.4,508.1,451.6,509.8z"/>
			<path class="st13" d="M461.5,537c0.2,0,0.2,0.2,0.3,0.3c0.3,1.2,0.5,2.3,0.8,3.5c0.1,0.3,0,0.4-0.2,0.5c-2.6,1.4-5.2,2.7-7.8,4.1
				c-0.2,0.1-0.3,0.1-0.4-0.2c-0.5-1.3-1-2.7-1.4-4c-0.1-0.2-0.1-0.3,0.2-0.4c2.8-1.2,5.7-2.4,8.5-3.7
				C461.4,537,461.4,537,461.5,537z"/>
			<path class="st13" d="M448.9,517.3c-0.4-0.5-0.8-0.9-1.2-1.3c-1.6-1.7-3.1-3.4-4.7-5.2c-0.3-0.3-0.4-0.6-0.2-1
				c0.7-1.4,1.3-2.8,2.2-4.2c1.8,2,3.6,4,5.4,6c0.2,0.2,0.2,0.4,0.1,0.6C449.9,514,449.4,515.6,448.9,517.3z"/>
			<path class="st13" d="M439.3,530.4c2.6,1.4,5.1,2.8,7.6,4c1,0.5,1.5,1,1.5,2.1c0,0.7,0.3,1.5,0.4,2.3c-1.6-0.4-3-0.7-4.5-1.1
				c-1.3-0.3-2.5-0.6-3.8-0.9c-0.4-0.1-0.6-0.3-0.7-0.7C439.6,534.3,439.3,532.4,439.3,530.4z"/>
			<path class="st13" d="M449.4,552c-0.5,0-1.1,0-1.6-0.1c0.3-0.2,0.7-0.1,1-0.1c-0.9,0-1.8-0.1-2.6,0c-0.4,0-0.7,0-0.9-0.4
				c-1-1.7-1.9-3.4-2.7-5.4c1.5,0.3,3,0.6,4.4,0.9c1.6,0.3,3.1,0.6,4.6,0.9c0.2,0,0.5,0,0.6,0.3c0.7,1.3,1.5,2.6,2.3,4
				c-1.2,0-2.3,0-3.3-0.2c0.4-0.2,0.8-0.1,1.2-0.1C451.4,552,450.4,551.8,449.4,552z"/>
			<path class="st13" d="M463.2,543.3c0.5,1.2,0.9,2.3,1.4,3.4c0.1,0.3,0,0.4-0.2,0.5c-2.2,1.5-4.5,3-6.7,4.5
				c-0.3,0.2-0.3,0.1-0.5-0.1c-0.8-1.2-1.5-2.5-2.1-3.8c-0.1-0.2-0.1-0.3,0.1-0.4C457.9,546,460.6,544.6,463.2,543.3z"/>
			<path class="st13" d="M466.5,506.3c-0.6,1.1-1.1,2.1-1.6,3.2c-0.1,0.2-0.3,0.3-0.5,0.4c-3.2,0.3-6.5,0.5-9.7,0.8
				c0,0-0.1,0-0.2-0.1c0.6-1.4,1.3-2.8,2.1-4.1c0.2-0.1,0.4-0.2,0.6-0.2c3,0,6.1,0,9.1,0C466.3,506.2,466.4,506.2,466.5,506.3z"/>
			<path class="st13" d="M447.6,530.7c0.2,0.5,0.1,1.1,0.2,1.7c-0.2,0.1-0.4-0.1-0.6-0.2c-2.5-1.3-5-2.7-7.5-4
				c-0.4-0.2-0.5-0.4-0.5-0.8c0.1-1.5,0.1-3,0.3-4.6c0.6,0.4,1.1,0.7,1.6,1.1c2,1.4,4.1,2.8,6.1,4.2c0.2,0.1,0.5,0.3,0.3,0.6
				C447.5,529.3,447.6,530.1,447.6,530.7c-0.1,0.1-0.1,0.2-0.1,0.2C447.6,530.9,447.5,530.7,447.6,530.7z"/>
			<path class="st13" d="M451,545.5c-3.1-0.6-6-1.2-9-1.8c-0.3-0.1-0.4-0.2-0.5-0.4c-0.4-1.2-0.7-2.5-1-3.7
				c-0.1-0.4,0.1-0.5,0.4-0.4c2.7,0.6,5.5,1.3,8.2,1.9c0.3,0.1,0.4,0.2,0.5,0.4C450,542.9,450.5,544.2,451,545.5z"/>
			<path class="st14" d="M458.3,503.6c0.7-1,1.4-1.9,2.2-2.8c0.1-0.2,0.3-0.3,0.5-0.3c3.5-0.3,7-0.6,10.6-0.8c0.1,0,0.2,0,0.4,0
				c-1.5,1.3-2.7,2.6-3.8,4.1c-0.2,0.1-0.5,0.1-0.8,0.1c-2.8,0-5.6,0-8.4,0C458.8,503.8,458.5,504,458.3,503.6z"/>
			<path class="st13" d="M468.1,552.8c0,0.2-0.1,0.2-0.2,0.3c-2,1.3-3.9,2.6-5.9,3.9c-0.3,0.2-0.4,0.1-0.6-0.1
				c-0.9-0.9-1.7-1.8-2.5-2.8c-0.2-0.3-0.1-0.4,0.1-0.6c2.1-1.4,4.2-2.8,6.3-4.2c0.2-0.1,0.4-0.3,0.5,0.1c0.6,1.2,1.3,2.3,2.1,3.4
				C468,552.7,468,552.7,468.1,552.8z"/>
			<path class="st14" d="M451,528.7c1.1-0.4,2.3-0.5,3.4-0.7c2-0.4,4-0.7,6-1.1c0.5-0.1,0.6,0,0.6,0.5c0,0.6,0,1.2,0,1.7
				c0,0.3-0.1,0.5-0.4,0.6c-3,1-5.9,2-8.9,3.1c-0.4,0.1-0.5,0.1-0.5-0.3c0-0.5,0-0.9-0.1-1.4C451.1,530.2,451.1,529.4,451,528.7z"/>
			<path class="st3" d="M481.2,495.7c-1.8,0.2-3.5,0.7-5.1,1.4c-0.6,0.3-1.4,0.2-2.1,0.2c-3.2,0.3-6.5,0.5-9.7,0.8
				c-0.2,0-0.4,0-0.8,0c1.5-1.3,3.1-2.3,4.7-3c0.2-0.1,0.4-0.1,0.6-0.1c4.1,0,8.1,0,12.2,0c1,0,2.1,0.1,3.1,0.4
				c-0.1,0.2-0.4,0.2-0.6,0.2C482.7,495.6,482,495.6,481.2,495.7C481.2,495.6,481.3,495.5,481.2,495.7
				C481.1,495.6,481.2,495.7,481.2,495.7z"/>
			<path class="st13" d="M461.2,534.1c0.2,0.5-0.1,0.6-0.5,0.8c-2.7,1.2-5.5,2.3-8.2,3.5c-0.5,0.2-0.6,0.1-0.6-0.4
				c-0.1-0.9-0.3-1.7-0.5-2.5c-0.1-0.3,0-0.5,0.3-0.6c2.9-1,5.9-2,8.8-3c0.3-0.1,0.5-0.1,0.5,0.3
				C461.1,532.8,461.2,533.5,461.2,534.1z"/>
			<path class="st13" d="M450.3,554.2c1.9,0.1,3.8,0.2,5.7,0.2c0.2,0,0.4,0.1,0.5,0.2c0.7,0.8,1.5,1.6,2.2,2.4
				c0,0.4-0.3,0.2-0.5,0.2c-1.2,0-2.4,0-3.6,0c0.5,0.1,1.1-0.1,1.7,0.1c-1,0.1-2,0.1-3,0.1c-0.9-0.1-1.9-0.1-2.8,0
				c-1.1-0.8-2.1-1.9-3-3c0-0.5,0.4-0.3,0.6-0.3C448.9,554.3,449.6,554.3,450.3,554.2z"/>
			<path class="st13" d="M455.9,502.7c-1-1.7-2-3.4-3-5c-0.2-0.2,0-0.3,0.1-0.4c1-0.6,2.1-1.1,3.2-1.5c0.3-0.1,0.4,0,0.5,0.2
				c0.6,1.1,1.2,2.2,1.8,3.3c0.1,0.2,0.1,0.4-0.1,0.5C457.6,500.7,456.7,501.7,455.9,502.7z"/>
			<path class="st13" d="M465,495c-1.6,0.9-3,1.8-4.4,2.9c-0.2,0.2-0.3,0.1-0.4-0.1c-0.4-0.8-0.8-1.6-1.3-2.4
				c-0.2-0.3,0-0.4,0.2-0.4C461.1,494.9,463.1,495,465,495z"/>
			<path class="st15" d="M458.3,503.6c0.2,0.2,0.5,0.1,0.7,0.1c3.1,0,6.1,0,9.2,0c-0.1,0.3-0.4,0.2-0.5,0.2c-3,0-6,0-9,0
				C458.5,503.9,457.9,504.2,458.3,503.6z"/>
			<path class="st11" d="M466.5,506.3c-3,0-6,0-9,0c-0.3,0-0.6,0-1,0.1c0.1-0.2,0.3-0.3,0.5-0.3c3.1,0,6.2,0,9.3,0
				C466.4,506.1,466.5,506.2,466.5,506.3z"/>
			<path class="st16" d="M450.3,554.2c-0.6,0.3-1.3,0.1-1.9,0.1c-0.3,0-0.6-0.1-0.7,0.2c-0.1-0.1-0.3-0.2-0.3-0.5
				C448.3,554.2,449.3,554.2,450.3,554.2z"/>
			<path class="st17" d="M449.4,552c1-0.3,2,0,2.9,0c-0.4,0-0.8,0-1.2,0.1C450.6,552,450,552,449.4,552z"/>
			<path class="st8" d="M447.6,530.7c0,0.2-0.1,0.4-0.1,0.6c0-0.9-0.2-1.8,0-2.6C447.6,529.3,447.6,530,447.6,530.7z"/>
			<path class="st18" d="M446.2,551.8c0.9-0.3,1.8-0.1,2.6,0c-0.3,0-0.7,0-1,0.1C447.3,551.9,446.8,551.9,446.2,551.8z"/>
			<path class="st11" d="M451,528.7c0.2,0.8,0.2,1.6,0,2.4C451,530.2,450.9,529.4,451,528.7z"/>
		</g>
	</g>
</g>
<rect x="502.4" y="554.5" class="st0" width="54.7" height="29.9"/>
<text transform="matrix(1 0 0 1 519.3696 570.5549)" class="st19 st20">AI</text>
<path class="st21" d="M312.6,457.1c-0.6-2.3,30.9-12.3,49.4-15.1c8.3-1.3,16.6-1.8,16.6-1.8c5.6-0.3,4.4,0,14.4-0.2
	c10.4-0.3,12.1-0.7,13.2,0.8c2.2,3-1.1,11-6.9,14c-4,2.1-7.9,1.2-12.5,0.5c-8.8-1.4-17.7-0.7-26.6-1.8
	C334.2,450.3,313,459,312.6,457.1z"/>
<path class="st21" d="M424,443.1c-0.8,0.9-1.7,2.2-2.4,3.9c-1,2.2-1.3,4.2-1.4,5.5c2.6,1.3,5.5,2.5,8.7,3.7c5.5,2,10.6,3.4,15.1,4.3
	c-0.1-1.3-0.2-2.8-0.4-4.3c-0.2-1.6-0.5-3-0.9-4.3c-2.7-1.6-5.8-3.3-9.2-4.9C430.2,445.5,427,444.2,424,443.1z"/>
<path class="st22" d="M230.3,474.3c-0.1-0.4-10.9,1.1-30.4,5.8c-38.6,9.4-39.1,14.2-39.3,14.2c0,0,0,0,0,0c0,0.1,3.7,2.6,6,3.6
	c4.9,2.3,7.9-0.1,16.7,0.3c3.2,0.1,5.9,0.6,7.7,0.9c1-2.1,2.6-4.8,4.9-7.7C208.6,476,230.4,474.8,230.3,474.3z"/>
<path class="st23" d="M103.8,457.4"/>
<path class="st22" d="M368,465.6c-7.6-0.6-18.5-0.2-28.5,5.9c-10,6.1-13.3,14.3-18.4,20.9c-7.4,9.5-1.6,45.3,3.6,50.6
	c-0.3-8,0.2-21.7,6.6-36.8C341.7,481.8,360.9,469.7,368,465.6z"/>
<path class="st22" d="M147.7,536.4c0,4.4,0,8.8,0,13.3c21.4,3.2,42.9,6.3,64.3,9.5c3.1-5.9,6.1-11.7,9.2-17.6
	C196.7,539.8,172.2,538.1,147.7,536.4z"/>
<g>
	<polygon points="516.4,566.8 450.3,566.3 516.4,565.8 	"/>
</g>
<g>
	<polygon points="541.8,565.8 607.9,566.3 541.8,566.8 	"/>
</g>
</svg>
