<?xml version="1.0" encoding="utf-8"?>
<!-- Generator: Adobe Illustrator 24.0.1, SVG Export Plug-In . SVG Version: 6.00 Build 0)  -->
<svg version="1.1" id="Layer_1" xmlns="http://www.w3.org/2000/svg" xmlns:xlink="http://www.w3.org/1999/xlink" x="0px" y="0px"
	 viewBox="0 0 16194.5 11450.7" style="enable-background:new 0 0 16194.5 11450.7;" xml:space="preserve">
<style type="text/css">
	.st0{fill:none;}
	.st1{font-family:'Mistral';}
	.st2{font-size:1296px;}
	.st3{fill:#252525;}
	.st4{fill:#090909;}
	.st5{fill:#0E0E0E;}
	.st6{fill:#0D0D0D;}
	.st7{fill:#151515;}
	.st8{fill:#020202;}
	.st9{fill:#D16768;}
	.st10{fill:#D45153;}
	.st11{fill:#010101;}
	.st12{fill:#EE1A24;}
	.st13{fill:#262626;}
	.st14{fill:#272727;}
	.st15{fill:#030303;}
	.st16{fill:#1D1D1D;}
	.st17{fill:#1C1C1C;}
	.st18{fill:#171717;}
	.st19{font-family:'FranklinGothic-Medium';}
	.st20{font-size:713.4499px;}
	.st21{opacity:0.54;fill:#0071BC;}
	.st22{opacity:0.54;fill:#ED1C24;}
</style>
<g>
	<path d="M8223,4649.2c-197.2,178.4-298.9,413.4-392.3,654.4c-22.6,58.3,6.7,93.2,33.2,134.7c87.9,137.7,174.5,276.2,262.1,414
		c32.2,50.6,72.9,100.4-12,154.8c-123.9-103.6-250.7-209.7-390.2-326.3c-62.4,207.7-95,398.8-122.4,604.3c153.5,0,290.9,0,427.5,0
		c49,80.9,29.8,126.1-51.4,148c-14.3,3.9-28.2,10.8-42.8,12.3c-321.4,31.6-439.6,216.6-410.5,526c11,117.5-11.5,237.8-5,356
		c6.8,124.5-40.2,175.3-173.4,154c-22.1-238.8,3-479,20.7-718.4c49-664.7,151.9-1317.7,451-1924c86.1-174.5,197.4-332,340.8-464.6
		c360.4-333.3,814.1-287.9,1103.7,109.7c139.6,191.7,258.4,411.5,254.4,638.8c-3.5,193.8,81.1,341.8,127.2,508.5
		c213.5,772-50.7,1585.3-666.3,1990.9c-385.4,253.9-800.2,292.7-1234.1,131.2c-94.2-35-145-83.3-135.2-194.4
		c11.1-125.1,2.5-252,2.5-406.5c49.2,38.7,68.7,52.3,86.2,68.2c432.2,391.8,976.1,379.7,1394.6-31.4
		c477-468.6,534.5-1372.9,121.5-1900.2c-179.3-228.9-413.8-346.8-703.9-355.1c-39.6-1.1-79.4,2-118.8-0.6
		c-71.6-4.7-161,29-206.3-45.5c-50.3-82.5,23.5-146.5,64.2-211.9c153-101.2,318-98.9,485-49.6c269,79.4,480.8,242.1,651.7,469.9
		c-3.5-232.1-253.6-578.2-472.5-661.8C8681,4346.1,8422.6,4426.6,8223,4649.2z"/>
	<path d="M1606.1,6657.2c33.4,95.9,106.1,104.5,171.3,124c638,191.1,1294.1,280.1,1954.4,345.4c289.8,28.7,571.4-39.3,855.5-74.4
		c90.8-11.2,163.5-5.5,228.3,63.2c195.2,206.9,434.7,274.9,719,274.3c459.8-1,919.7,31.3,1379.4,53.2
		c54.1,2.6,121.3-16.3,160.2,47.3c-28.4,59.9-84.2,44.9-130.4,51c-947.4,125.5-1896.5,81.2-2845.9,30.7c-81.6-4.3-141.3-44-194-96.6
		c-124.1-123.6-270.8-175.9-445.9-196.7c-648.6-77-1294.7-174.2-1908.6-412c-53.1-20.5-85.2,16.9-144.5,19.3
		C1458.8,6791.6,1524.5,6734,1606.1,6657.2z"/>
	<path d="M1561.6,5262.8c26.8,119.5,93.1,152.6,176.2,167.5c493.3,88.4,990.3,124.3,1491.3,112.8c164-3.8,287.4-67.3,353.3-220.2
		c30.6-71.1,78.2-92.5,150.6-88.8c74,3.8,149.6,7.9,222.3-3.3c153.3-23.5,248.4,37.2,328.4,167.6c77.6,126.7,23.3,221-27.2,330.9
		c-70,152.5-164.2,208.8-344,196.7c-686.2-46-1369.5-118-2051.6-202.2C1544.4,5684.8,1438.5,5531,1561.6,5262.8z"/>
	<path d="M4387.8,4044.1c-502.8,87.8-998.1,200-1485.5,345.6c-242,72.3-483.3,148.5-703.9,274.1c-82.3,46.8-221.5,80-205.8,185
		c16.7,111.5,160,91,252.6,105.9c367.5,59.1,739.3,68.8,1110.4,80.2c574.2,17.7,1148.5,15.7,1723.6,9.1
		c-191,46.4-386.5,61.3-581.7,72c-806.3,44.2-1612.9,71.1-2419.9,16c-108.9-7.4-216.3-25.9-319.2-64.2
		c-114.1-42.4-125.5-114-56.3-207.1c42.2-56.8,97.6-97.4,157.7-133c475.5-281.6,1004.3-415.1,1533.6-542.6
		c283.4-68.3,573-111.2,859.8-165.5C4298.2,4011.2,4345,3989.7,4387.8,4044.1z"/>
	<path d="M1543.1,5794.7c91.1,68.1,106.8,154.3,118.1,241.1c10.2,78.5,17.9,157.4,23.1,236.4c8,122.6,67.1,202,185.4,240.2
		c512,165.2,1038.7,247.2,1574.4,275.7c70.6,3.8,142.4-15.8,227.2-26.2c-62.5,116.7-138.8,179.1-264.1,169.6
		c-534-40.4-1061.5-113.9-1577-268.3c-197.2-59-286-173.5-289.4-372.7C1538,6130.2,1519.7,5969.8,1543.1,5794.7z"/>
	<path d="M8959.2,3986.1c354.9,248.1,768.9,221.1,1170.3,248.6c310.9,21.3,622.4,32.6,933.5,52.1c199.9,12.6,237.5-22.5,211.3-214.5
		c78,34.6,125.6,126.2,112.3,214.4c-15.2,100.5-92.7,107.1-168.1,105.4c-435.3-9.9-870.4-22.7-1305.7-34.2
		c-74.2-2-148.4-3.3-222.6-2.9c-186.8,1-200.7,18-163.9,201.3c11.5,57.4-29.2,100.8-47.8,163.9c-85.5-312.5-295-525.4-540.4-710.1
		C8945.2,4002.1,8952.2,3994.1,8959.2,3986.1z"/>
	<path d="M4158.2,4776.3c57.3-61.5,114.5-123,171.8-184.4c8.9,8.5,17.8,17,26.7,25.5c-26.5,46-72.8,80.9-80.4,149.1
		c132.4,0,262.9,7,392.4-1.3c366.9-23.7,727.6-16.1,1088.6,80.6c261.5,70,530.1,51,776.8-91.8c252.8-146.2,429.3-344.6,462.7-648.2
		c57,278.8-55.4,493.6-266.8,653.5c-245.7,185.9-540.2,303.8-836.1,209.8c-529.2-168.2-1062.5-145.7-1600.7-129.5
		c-49.9,1.5-128.1,34.9-132.7-65.7L4158.2,4776.3z"/>
	<path d="M6422.1,6030.1c-105.3-64.1-199.9-56.2-290.9-47.8c-276.7,25.5-564.3-46.5-829.1,100.7c-49.1,27.3-126.5,5.2-190.8,3.9
		c-529.9-10.9-709.1,104.8-923.5,590c-46.7,105.8-101.8,208.5-185.4,299.1c-36.6-41.3-0.7-67.6,9.8-92.6
		c106.4-250.9,234.9-490.5,368.7-727.9c79.1-140.3,195.8-208.6,348.9-212.9c514.7-14.5,1029.6-23.9,1544.4-36.3
		C6345.8,5904.6,6399.4,5922.9,6422.1,6030.1z"/>
	<path d="M10621.1,3307.5c-129.7-71.7-255.2-152.9-390.2-212.7c-156.5-69.4-225.7-31.8-277.9,129.8c-54.8,169.4-110,338.9-156,510.7
		c-25.8,96.6-64.8,136.9-174,124.1c-196.3-23.1-394.7-30.4-592.4-38c-95-3.7-160.3-61.1-233.3-125.9c198.7,9.9,398,13.8,595.9,32.5
		c94.2,8.9,147-15.8,183.5-102.9c49.6-118.4,112-231.3,163.9-348.8c40.6-91.8,57.8-187.3-13.1-308.1
		c385.7-82.2,654.9,106,917.2,315.5C10636.8,3291.7,10628.9,3299.6,10621.1,3307.5z"/>
	<path d="M9662.4,2935.5c-52.9,69.8-112.8,73.7-179.2,70.8c-1214.6-52.4-2345.5,238.6-3400.5,835.2c-61.2,34.6-120,39.1-220.6,26.5
		C7054.8,3190.4,8299.2,2859.6,9662.4,2935.5z"/>
	<path d="M8566.3,7323.7c898.6-478.4,856.9-1727.9,177.2-2182.3c321.6,1.1,630.6,528.6,624.8,1066.8
		C9362.5,6745.5,8942.5,7329.7,8566.3,7323.7z"/>
	<path d="M4703.2,6730c565.9-109.6,1134-86,1702.1-70c0.4,28.4,0.9,56.8,1.3,85.2C5839.7,6781.7,5271.5,6744,4703.2,6730z"/>
	<path d="M8349.6,3669.2c-496.1-62.3-915.1,64-1314.8,268.4c-131.1,67.1-250.9-24.5-386.5,9
		C6935.5,3666.9,8026.7,3477.3,8349.6,3669.2z"/>
	<path d="M4788.7,6433c536.3-95.9,1075.1-91.9,1614.4-40.8C6314.9,6477.4,5080.6,6503.9,4788.7,6433z"/>
	<path d="M4160.5,4773.8c-199.6,117.9-415.9,39.3-632,69.2c79.6-167.9,543.3-353,771.8-320.2c-12,104.6-159.5,133.5-142.1,253.4
		C4158.2,4776.3,4160.5,4773.8,4160.5,4773.8z"/>
	<path d="M4330,4591.8c69.3-112,187-157.3,301.1-188.3c227.9-61.8,461.7-101.9,691.6-156.8c97.3-23.2,189.1,18.8,283.2,5
		c-359.4,94-718.7,188.6-1078.4,281.5c-63.5,16.4-121.1,41.5-170.9,84C4347.8,4608.8,4338.9,4600.3,4330,4591.8z"/>
	<path d="M9866.7,3913.3c-70.8-95.9,14.2-173.2,26.6-296.2c107.6,181.3,258.9,139.8,399.9,142.3c53.9,1,135.6-26.2,141.7,60.1
		c6.2,88.1-76,86-138.2,94.9c-98.5,14.1-98.6,13.7-104.2,106.6c-135.8,8.9-265.9-17.1-393.3-53.5c0.5-58.8,50.4-28.2,65.9-52.3
		c85.4,37.4,172,66.4,296.1,38.7C10048.5,3904.1,9955.8,3920.9,9866.7,3913.3z"/>
	<path d="M7976.2,7260.7c-85.1-22.1-134.3-69.8-199.8-121.7c127.7-156.7,250.8-309,375.4-460c56.5-68.5,90.4-14.1,134,30.6
		C8182.5,6893.2,8079.7,7076.3,7976.2,7260.7z"/>
	<path d="M8322.1,5812.1c-0.9-232.4-44.4-446.7-29.9-668.5c71.4-21.1,131.4-2.4,190.5,14.9
		C8510.7,5425.1,8427.1,5783.9,8322.1,5812.1z"/>
	<path d="M8548.4,7263.8c-68.3-480.5-62.4-536.5,60.6-603.6c62.9,134.1,84.5,280,113.5,420.8
		C8745.7,7193.9,8614.8,7181.6,8548.4,7263.8z"/>
	<path d="M11312.3,3986.1c144-11.3,260.7-17.9,376.6-30.8c40.3-4.5,87.4,8.9,117.6-41.5c35.5-59.3,90.5-40.1,123.5-1.7
		c54.3,63,27.1,132.6-19,186.9c-36.6,43.2-66.9,35.2-116.7-11.6c-74.3-69.8-184.6-39.2-278.1-27.5
		C11442,4069.2,11382.5,4064.7,11312.3,3986.1z"/>
	<path d="M9984.7,5037c15.7-153.3,30.1-306.8,47.8-459.8c5.3-46,38.3-69.2,84-62.5c105,15.5,211.5,28.3,319.8,115.3
		c-354.9-61-364.3,196.1-397.1,431.3C10021,5053.1,10002.9,5045.1,9984.7,5037z"/>
	<path d="M8808.7,5344.8c62.6,34.7,102.9,88.3,138.6,157.4c-84.7,124-170,248.9-255.7,374.5
		C8606.9,5809.2,8652.6,5615.7,8808.7,5344.8z"/>
	<path d="M6324.5,4352.4c-106.7,141.7-106.6,178.4-4.6,322.3c-54.8,70.9-116,65.1-176.1,10.2c-72.4-66.2-78.9-232.6-12.3-316.5
		C6184.4,4301.7,6246.1,4275.8,6324.5,4352.4z"/>
	<path d="M8821.2,6369.7c99.8,43.1,189.1,81.6,276.4,119.3c1.5,86.9-20.7,154.8-60.6,218.2
		C8806.8,6584.8,8750.9,6501.9,8821.2,6369.7z"/>
	<path d="M9143.7,6057.8c-99.1,17.6-185.7,33.5-272.5,48.1c-29.9,5-58,5.2-71.7-31.9c-15.1-41,0.5-64.1,36.1-83.2
		c85.7-45.8,170.3-93.7,258.1-142.3C9135,5914.3,9134.1,5977.3,9143.7,6057.8z"/>
	<path d="M11083.6,4136.3c-164.4-127.8-115.1-366.9-245.9-514.7C11007.9,3744.9,11061.8,3931,11083.6,4136.3z"/>
	<path d="M8309.8,6248.8c12.3-80.4,38.2-142,117.7-140.8c76.6,1.2,97,65,91.5,126.6c-6.5,72.8-41.4,142.7-125.8,137.5
		C8319.8,6367.6,8309.5,6300.4,8309.8,6248.8z"/>
	<path d="M5091.4,4446.8c19.2,18,30.2,23.4,32.8,31.5c24.8,77,43.4,155.1-33.3,214.6c-21.7,16.8-52.9,4.3-60.7-21.8
		C5005.2,4587.5,4998.9,4506.3,5091.4,4446.8z M5096.5,4624.4c23.5-32.1,41.2-59.5-5.4-88.1C5078,4563.6,5062,4587.2,5096.5,4624.4z
		"/>
	<path d="M9973.8,5360.7c1.1,126.1-20.1,258.3-69.6,413.7C9897.2,5592,9927.2,5437.2,9973.8,5360.7z"/>
	<path d="M6016.6,4318.3c-61,115.4-67.4,233-4.3,373.7C5897.5,4551.8,5900.3,4458,6016.6,4318.3z"/>
	<path d="M10644.7,3283.8c92.8,47.2,155,128.8,213.6,217.3c-79.1-64.6-158.1-129.1-237.2-193.6
		C10628.9,3299.6,10636.8,3291.7,10644.7,3283.8z"/>
	<path d="M8938.1,4010.1c-15.7-5.8-31.5-11.6-51-18.8c29-41.4,50.5-19.2,72.1-5.2C8952.2,3994.1,8945.2,4002.1,8938.1,4010.1z"/>
	<path d="M9866.7,3913.3c89.2,7.6,181.9-9.2,294.6,40.7c-124.1,27.7-210.7-1.3-296.1-38.7
		C9865.1,3915.4,9866.7,3913.3,9866.7,3913.3z"/>
	<path d="M5096.5,4624.4c-34.5-37.2-18.5-60.7-5.4-88.1C5137.8,4564.9,5120,4592.3,5096.5,4624.4z"/>
	<g>
		<rect x="12111.9" y="5308.6" class="st0" width="10537.1" height="1598.6"/>
		<text transform="matrix(1 0 0 1 12111.8701 6158.7959)" class="st1 st2">ARLENS	</text>
		<g>
			<path class="st3" d="M11285.3,6670.5c26.3,16.6,52.6,33.2,78.9,49.8c-3.8,9-11.9,8.3-19.4,8.2c-38.6-0.8-77.2,2.2-115.8-1.8
				c-6-0.6-12.4-1.3-18.4,1.4c-50-6.1-97.6-19.5-141.8-44c-1.7-8.1,4.4-7.1,8.8-7.2c22-0.2,44-0.2,64.2,0c-13.6-2.1-29.5,3-44.7-2.9
				c26.7-3.6,53.5-3.3,80.3-3C11213.5,6673.4,11249.4,6673.8,11285.3,6670.5z"/>
			<path class="st4" d="M11468.6,6727.3c6.1-4.9,13.3-2.8,20-2.8c133.4-0.1,266.9-0.1,400.3,0c6.6,0,14-2.3,19.7,3.5
				c-35.7,5.3-71.6,3.7-107.5,3.8c-102.2,0.1-204.4,0-306.5,0C11485.7,6731.7,11476.6,6732.7,11468.6,6727.3z"/>
			<path class="st4" d="M11210.7,6727.9c8.6-7,18.6-3.2,27.9-3.4c33.8-0.5,67.7-0.2,101.6-0.2c8.3,0,16.7,0.8,24.1-4.2
				c6.3,2.1,12.5,4.4,18.7,11.9C11324.3,6730.3,11267.4,6735,11210.7,6727.9z"/>
			<path class="st5" d="M11864.1,4767.4c-4.5-0.8-9-1.6-17.7-3.2c36.4-4.8,69,3.8,100.6-6c30.2,3.7,57.6,16,85.3,28.5
				C11977.1,4771.1,11921,4765.4,11864.1,4767.4z"/>
			<path class="st6" d="M11947,6720.6c-31.5-9.9-64.2-1.2-100.9-6.2c9.2-1.6,13.7-2.4,18.2-3.2c48.9,2,97.2-3,145.5-11.7
				C11989.9,6710.4,11969.2,6717.6,11947,6720.6z"/>
			<path class="st7" d="M11124.8,6604.6c-19.8,0-39.6,0-59.3,0c0-1.7,0-3.4,0-5c35.5,0,70.9,0.2,106.4-0.2
				c7.8-0.1,16.9,3.4,22.7-5.5c2.5,2.2,7,4.3,7.2,6.7c0.4,4.7-4.4,3.7-7.5,3.7C11171.1,6604.5,11147.9,6604.6,11124.8,6604.6z"/>
			<path class="st8" d="M11097.2,6673.8c16.9,0,33.9,0,50.8,0c0,1.6,0,3.2,0,4.7c-19.6,0-39.1-0.3-58.6,0.1
				c-7.1,0.1-15.4-3.1-20.5,5.3c-5.3-2.1-10.5-4.2-15.8-6.3c0.2-1.3,0.4-2.6,0.7-3.8C11068.3,6673.8,11082.7,6673.8,11097.2,6673.8z
				"/>
			<path d="M11285.3,6670.5c-35.9,6.7-71.9,6.1-107.8,0.3C11213.5,6669.9,11249.4,6668,11285.3,6670.5z"/>
			<path class="st9" d="M12237.6,6321.7c-1-3.5-1-7.6-5.2-9.3c8.8-14.9,17.6-29.8,26.4-44.6
				C12255.3,6287.5,12248.1,6305.3,12237.6,6321.7z"/>
			<path class="st10" d="M12228.2,5161.8c3.7-0.4,7.2-1.1,9.3-4.7c9.8,13.4,14.6,29,17.8,45.7
				C12246.3,5189.1,12237.2,5175.4,12228.2,5161.8z"/>
			<path class="st11" d="M10953.1,6607.5c27.6-5.9,55.2-5.8,82.8,0C11008.3,6608.2,10980.7,6610.4,10953.1,6607.5z"/>
			<g>
				<path class="st12" d="M12228.2,5161.8c-42.6-62.4-93.5-116.5-159.9-153.7c-108.6-60.8-221.9-48.5-318.1,33.3
					c-77.9,66.3-128.9,151.2-166.5,244.7c-71.7,178.2-92.3,364-78.9,554.3c10,142.1,40.9,279.2,103.9,407.8
					c32.5,66.4,73.2,127.1,128.3,177.3c116.1,105.7,255.8,110.3,378.9,13.1c45.6-36,82.6-79.6,116.3-126.3c7.7-0.2,7.3,4,5.2,9.3
					c-36.4,75.3-82.1,144.1-142.3,202.7c-152.1,147.7-345.1,147.2-496.7-1.5c-78.5-77-132.2-170.1-172-271.4
					c-84.5-215.1-106-438.5-84.4-667.1c13.9-147.2,48.8-289,113.1-422.7c40.5-84.2,91.5-161,162.2-223.5
					c145-128.1,326-125.7,467.7,6.3c65.1,60.6,114.2,132.6,152.3,212.5C12237.5,5164.9,12233.4,5164.3,12228.2,5161.8z"/>
				<path class="st13" d="M10692,5274.1c50.6,55.7,98.9,109,147.1,162.3c0.5,0.5,0.8,1.2,1.4,1.6c44.5,32.1,50.6,74.3,37.7,125
					c-7.7,30.3-7.3,62.7-10.9,97.3c-25.8-17.6-50-34.1-74.3-50.7c-48.5-33.2-96.9-66.5-145.6-99.5c-7.2-4.9-12.9-9.2-11-19.6
					C10649.6,5418.2,10666.2,5347,10692,5274.1z"/>
				<path class="st13" d="M11947,6720.6c-12.3,5.1-25.3,6.2-38.4,7.3c-15.8-4.8-31.4,0.8-47.2,0.8c-120.7-0.4-241.4-0.3-362.1-0.1
					c-10.3,0-20.5-2-30.8-1.3c-48.6-22.4-92.2-52.5-135.6-87.6c60.3-39.3,119-77.5,177.5-116.1c11-7.3,13.3,3.4,17.4,7.8
					c42.1,44.5,87.9,84.2,141,115.2c56.3,32.9,116.3,54.5,181.3,61.6c4.7,0.5,9.4,2,14.1,3c-2.6,2.4-3.4,3,1.3,2.9
					c21.2-0.3,42.4,0.1,63.5-0.2C11936.2,6713.7,11942.9,6713.3,11947,6720.6z"/>
				<path class="st13" d="M11343.6,5257.5c-17.5,49.1-33.5,98.2-44.8,148.7c-1.8,8-6.2,9.3-12.9,10.2
					c-93.2,12.4-186.4,24.7-279.5,37.7c-12.4,1.7-14.7-1.6-12.2-12.5c11.3-50.6,24.3-100.7,41.1-149.8c2.8-8.2,6.8-12.3,15.9-13
					c95.2-7.3,190.3-15,285.5-22.5C11338.6,5256.3,11340.6,5257,11343.6,5257.5z"/>
				<path class="st13" d="M11273.4,5484c6.4-2,9.1,0.8,7.3,10.8c-7.2,39.5-12.4,79.2-15,119.3c-0.6,9.3-5.1,11.5-12.6,12.9
					c-91.8,16.6-183.5,33.2-275.3,50.1c-9.7,1.8-14,0.2-12.9-10.8c4.5-44,8.6-88.1,12.7-132.1c0.7-6.9,2.8-10.8,11-11.9
					C11082.7,5509.9,11176.5,5497.1,11273.4,5484z"/>
				<path class="st13" d="M10983.6,5187.7c-52.1-58.4-102.1-114.7-152.5-170.7c-5.5-6.1-4.2-10.1,0.1-15.9
					c35.7-48.7,76.2-93.1,122.1-132.5c8.8-7.6,13.5-8.2,20,2.8c30.1,51.3,60.7,102.2,91.7,152.9c4.8,7.9,3.7,13-1.1,20.1
					C11033.5,5089,11007.8,5136.3,10983.6,5187.7z"/>
				<path class="st13" d="M11276.9,5996.4c7.4-0.9,6.6,5.6,7.5,9.6c7.9,34.3,15,68.8,23.4,103c1.9,7.9,0.1,10.8-6.6,14.2
					c-77.8,40.4-155.5,81-233.1,121.8c-7.2,3.8-10.2,3.1-13.4-5.1c-15.2-39.3-28.6-79.2-40.1-119.8c-1.6-5.8-1.9-9.9,5.3-13
					c84.4-36.2,168.6-72.8,252.8-109.3C11274.1,5997.4,11275.4,5996.9,11276.9,5996.4z"/>
				<path class="st13" d="M10904.7,5411.9c-13.2-14.5-24.6-27.1-36-39.7c-46.5-51.1-92.7-102.4-139.6-153.2c-8.6-9.4-10.5-17-4.9-29
					c19.4-41.7,39.1-83.2,64.3-123.7c54.1,60.4,106.9,119.7,160,178.7c5.3,5.9,6.6,11.1,3.7,18.6
					C10933.7,5311,10918.2,5359.4,10904.7,5411.9z"/>
				<path class="st13" d="M10617.9,5800.5c77,41.1,150.5,82.2,225.7,119.7c28.4,14.1,43.3,31.1,44.7,63.2
					c0.9,21.7,7.9,43.1,12.8,67.9c-46.4-10.9-90.3-21.3-134.3-31.5c-37.7-8.8-75.2-18.1-113.1-25.6c-13.2-2.6-18-8.6-19.8-21.2
					C10626,5916.6,10619.4,5860.4,10617.9,5800.5z"/>
				<path class="st13" d="M10919.7,6441.4c-15.9,0.1-31.8,0.2-47.4-2.9c10.2-4.8,20.4-3.9,30.5-2.1c-26.2-0.1-52.4-3-78.7,0.9
					c-11.4,1.5-20.9,0.6-28-11.3c-30.3-50.4-57.4-102.3-80.8-159.5c45,8.9,88.1,17.3,131.1,25.9c46.1,9.3,92.1,18.8,138.2,28.2
					c6.7,1.4,14.2,1.2,17.9,8.6c19.7,40.1,43.5,77.9,69.1,118.3c-35.3-0.9-67.5-0.1-99.5-4.9c11.7-5.1,23.4-3.2,35-2.1
					C10978.1,6440.6,10948.9,6437.5,10919.7,6441.4z"/>
				<path class="st13" d="M11328.8,6182.3c13.9,34.5,26.7,67.9,41,100.7c3.9,9,0.7,12.2-5.5,16.4c-66.5,44.6-133,89.2-199.1,134.3
					c-7.6,5.1-10.1,2.8-14-3.4c-22.8-36.2-43.1-73.8-61.7-112.3c-2.8-5.9-4-8.9,3-12.5C11171.2,6264.5,11250,6223.3,11328.8,6182.3z
					"/>
				<path class="st13" d="M11426.3,5082.6c-16.4,31.8-32.9,63.5-48.9,95.5c-3.5,7.1-8,10-15.8,10.6c-96.3,7.6-192.6,15.5-289,23.2
					c-1.1,0.1-2.3-1-5-2.4c17.8-42.3,37.4-83.8,61.6-122.9c5.8-3.8,11.7-6.2,19.2-6.1c90,0.3,180,0.2,270,0.2
					C11421.2,5080.7,11423.8,5081.1,11426.3,5082.6z"/>
				<path class="st13" d="M10866.3,5809c4.9,16.1,3.8,32.7,4.6,49.6c-7.3,1.8-11.7-3.2-16.6-5.8c-74.3-39.5-148.4-79.4-222.9-118.4
					c-11.3-5.9-15.9-12.1-15.2-25.1c2.1-44.1,4.2-88.2,9.2-135.5c16.6,11.2,31.8,21.3,46.8,31.6c60.9,41.7,121.8,83.4,182.7,125
					c6.2,4.2,14,7.4,10.3,17.5c-3.5,20.8-0.7,41.7-1.6,62.5c-0.1,1.8,1.1,4-1.1,5.5C10865.7,5814.7,10862.8,5810,10866.3,5809z"/>
				<path class="st13" d="M10965.6,6250c-91.3-18.3-179.2-36-267.1-53.5c-7.5-1.5-11.1-4.9-13.7-12.7c-12-36.1-21.2-72.8-30.9-109.5
					c-3.4-12.8,1.6-13.6,12.2-11.1c81.2,19.2,162.5,38.4,243.9,56.9c8,1.8,11.7,5,13.9,12.4
					C10935.2,6171.6,10950,6209.5,10965.6,6250z"/>
				<path class="st14" d="M11182.6,5004c19.4-30.4,42.6-57.7,66.7-84.4c4.2-4.7,8.6-8.2,15.6-8.7c104.8-8.1,209.5-16.4,314.3-24.6
					c2.5-0.2,5,0.4,11.1,0.9c-43.8,37.7-79.4,78.5-113.8,120.5c-7.4,2.6-15,2.1-22.6,2.1c-83,0-166,0.1-248.9-0.2
					C11197.4,5009.7,11188,5013.7,11182.6,5004z"/>
				<path class="st13" d="M11473.6,6465.3c1.4,6.1-3.9,7.2-6.8,9.2c-58.2,38.3-116.6,76.2-174.6,114.8c-8.2,5.4-12,2-17.3-3.2
					c-26.2-26.6-50.4-54.9-73.7-84.1c-6.8-8.5-4.3-12,3.5-17.2c62.5-41.7,124.8-83.8,187.1-125.9c6.1-4.1,10.6-8.1,15.9,1.8
					c18.5,34.7,39.7,67.8,62.7,99.8C11471.6,6462.1,11472.7,6463.9,11473.6,6465.3z"/>
				<path class="st14" d="M10965.9,5747.8c32.3-12.4,67-14.1,100.5-20.9c58.9-11.9,118.4-21.3,177.4-32.7
					c13.8-2.6,18.3-0.2,17.2,14.4c-1.3,17.2-1,34.6-0.1,51.9c0.5,10.3-3.5,14.2-12.8,17.4c-88.2,30.2-176.3,60.6-264.2,91.6
					c-11.4,4-16,3.4-15.8-10c0.2-13.8-1.3-27.6-2.1-41.3C10968.6,5794.7,10968.5,5771.3,10965.9,5747.8z"/>
				<path class="st3" d="M11864.1,4767.4c-52.2,7.4-102.6,20.5-151.7,40.5c-19,7.8-42.3,5.4-63.6,7.1
					c-96.6,7.8-193.2,15.5-289.8,23.1c-6.5,0.5-13,0.1-24.2,0.1c45.4-37.9,90.7-67.4,140.3-90.1c5.3-2.4,12.1-1.9,18.3-1.9
					c120.5-0.1,241-0.4,361.5,0.1c31,0.1,62.2,1.6,92.1,11.7c-4.1,7.3-10.9,6.8-17.9,6.7c-21.2-0.3-42.5-0.1-63.7-0.1
					c-2.8,0,0.6-1-1.9-0.1C11861.7,4765.2,11862.2,4766.9,11864.1,4767.4z"/>
				<path class="st13" d="M11269.6,5911c6.3,13.8-2.4,19.1-14.7,24.3c-81.3,34.5-162.5,69.2-243.3,104.9c-14.4,6.4-17.1,2.9-19-10.8
					c-3.6-25.3-8.5-50.4-13.7-75.4c-2.1-10-0.3-14.3,10.1-17.9c87.6-29.7,175-60,262.2-90.6c9.9-3.5,13.4-2.8,13.9,8.4
					C11265.8,5872.6,11267.9,5891.2,11269.6,5911z"/>
				<path class="st13" d="M10944.5,6508.8c56.3,2.2,112.6,4.6,168.9,6.6c6.6,0.2,11.4,1.9,16,7.1c21.4,24.1,43.3,47.7,65.1,71.5
					c0.3,12.8-9.6,7.4-14.9,7.4c-35.9,0.4-71.9,0.5-106.2,0.1c16,2.6,34-3.5,51.4,3.1c-29.6,3.1-59.2,3.6-88.9,2.9
					c-27.6-2.8-55.2-2.7-82.8,0c-34-25.1-62.6-55.5-88.2-88.8c0.2-15.4,11.6-9.9,19-9.4
					C10904.1,6510.5,10924.3,6511.6,10944.5,6508.8z"/>
				<path class="st13" d="M11112.1,4977c-30.3-50.5-59.5-99.7-89.5-148.5c-4.5-7.4-1.3-9.4,3.8-12.4c30.3-18.2,62.1-33.2,95.3-45.2
					c8.2-3,12.1-1.2,16.1,6.6c17,33.2,34.5,66.1,52.1,99c3.4,6.3,3.4,10.5-2.2,15.9C11160.8,4918.2,11136.7,4946.6,11112.1,4977z"/>
				<path class="st13" d="M11382.5,4747.7c-46.2,25.4-89.6,54-130.1,87c-5.8,4.8-9.3,4.3-12.6-2.1c-12.5-23.8-24.9-47.7-37.5-71.4
					c-4.5-8.5-0.5-10.6,7.2-11.4C11267,4743.4,11324.5,4747.1,11382.5,4747.7z"/>
				<path class="st15" d="M11182.6,5004c6.6,5.1,14.4,3.9,21.9,3.9c90.7,0,181.4-0.1,272.1-0.1c-3.7,7.8-10.8,4.5-16.3,4.5
					c-89.5,0.2-179,0.3-268.4-0.3C11189.8,5012,11172.3,5021.2,11182.6,5004z"/>
				<path class="st11" d="M11426.3,5082.6c-89.6,0-179.1,0.1-268.7,0c-9.7,0-19.3,0.3-28.4,4.1c2.1-7.4,7.5-8.5,14.3-8.5
					c92.5,0.2,185,0.1,277.5,0.1C11424,5078.3,11426.3,5079,11426.3,5082.6z"/>
				<path class="st16" d="M10944.5,6508.8c-18.9,7.6-38.6,1.7-57.8,3.7c-7.6,0.8-16.6-3.1-21.9,6.2c-4.1-3.4-8.6-6.4-9.5-14.1
					C10885.4,6506,10914.9,6507.4,10944.5,6508.8z"/>
				<path class="st17" d="M10919.7,6441.4c28.8-9.3,58-0.6,87.1-0.6c-11.5,0.6-23.1,1.1-34.6,1.7
					C10954.7,6442.1,10937.2,6441.7,10919.7,6441.4z"/>
				<path class="st8" d="M10866.3,5809c-0.8,5.8-1.6,11.7-2.5,17.5c0.1-26.3-6.6-52.7,1.3-78.6
					C10865.5,5768.2,10865.9,5788.6,10866.3,5809z"/>
				<path class="st18" d="M10824.1,6437.2c26-8.6,52.4-1.6,78.7-0.8c-10.2,0.7-20.4,1.4-30.6,2
					C10856.2,6438.1,10840.2,6437.6,10824.1,6437.2z"/>
				<path class="st11" d="M10965.9,5747.8c5.7,23.4,5.9,46.8,0,70.3C10964.8,5794.7,10962.8,5771.3,10965.9,5747.8z"/>
			</g>
		</g>
	</g>
	<rect x="12495" y="6517.3" class="st0" width="1626.9" height="888"/>
	<text transform="matrix(1 0 0 1 12998.2588 6993.5498)" class="st19 st20">AI</text>
	<path class="st21" d="M6850.2,3621.1c-17-67,919.6-364.6,1467.4-450.3c247.4-38.7,493.3-53.1,493.3-53.1
		c167.9-9.8,130.7,0.8,428.1-7.1c308.3-8.2,360.6-19.9,391.6,22.3c65.8,89.5-33.8,326.4-204.9,417.4
		c-118.5,63.1-235.5,37.1-371.9,15.2c-260.4-41.9-527.5-21.4-789.3-53.1C7493.7,3419,6864.3,3676.6,6850.2,3621.1z"/>
	<path class="st21" d="M10163.5,3206.1c-22.4,26.8-49.9,65.4-72.4,116.4c-28.9,65.5-37.8,124.7-40.5,164.4
		c78.4,37.4,164.4,74.4,258.1,108.8c162.9,59.9,315.2,99.7,450.3,126.5c-1.9-39.4-5.7-82.6-12.6-129c-6.9-46.1-15.7-88.4-25.3-126.5
		c-81.1-48-172.2-97-273.2-144.2C10347.4,3275.6,10251.8,3237.4,10163.5,3206.1z"/>
	<path class="st22" d="M4405,4130.8c-2.5-11.8-324.6,31.7-904.5,173.3C2353,4584.4,2336.9,4725.9,2331.7,4727c0,0-0.1,0-0.1,0.1
		c-1.4,2.4,109.7,77.3,177.2,108.4c146,67.2,236-2.6,495.9,7.6c95.9,3.8,174.5,16.8,227.7,27.8c31-63,77.5-143.9,146.7-227.7
		C3760.6,4181.9,4408.6,4147.4,4405,4130.8z"/>
	<path class="st22" d="M8497.9,3875c-225.5-17.3-550.6-5.2-848.3,176.1c-296.8,180.8-394.2,425.1-546.5,622.4
		c-219,283.7-47.8,1346.9,106.3,1502.8c-10.1-238.1,5.5-644.4,197.3-1092.9C7717.7,4356.5,8288,3994.6,8497.9,3875z"/>
	<path class="st22" d="M1949.7,5978.4c0,131.3,0,262.6,0,393.9c637.6,94,1275.1,188.1,1912.7,282.1
		c91.1-174.6,182.2-349.1,273.2-523.7C3406.9,6080,2678.3,6029.2,1949.7,5978.4z"/>
	<g>
		<polygon points="12909.5,6866.2 10944.5,6865.7 12909.5,6865.2 		"/>
	</g>
	<g>
		<polygon points="13665.1,6865.2 15630.1,6865.7 13665.1,6866.2 		"/>
	</g>
</g>
</svg>
